<?xml version="1.0" encoding="UTF-8"?>
<svg version="1.1" xmlns="http://www.w3.org/2000/svg" width="32" height="32">
<path d="M0 0 C10.56 0 21.12 0 32 0 C32 10.56 32 21.12 32 32 C21.44 32 10.88 32 0 32 C0 21.44 0 10.88 0 0 Z " fill="#FEEEFE" transform="translate(0,0)"/>
<path d="M0 0 C6.6 0 13.2 0 20 0 C20 0.66 20 1.32 20 2 C18.865625 2.309375 17.73125 2.61875 16.5625 2.9375 C13.21224901 3.62924531 13.21224901 3.62924531 12 5 C11.58307147 8.41600593 11.58307147 8.41600593 12 12 C13.86124923 13.98239527 13.86124923 13.98239527 16 15 C15.39009109 18.55780196 14.4216319 21.6828589 13 25 C12.34 24.34 11.68 23.68 11 23 C11.03287583 20.27130593 11.56397771 17.7033382 12 15 C9.3549963 15.91783124 9.3549963 15.91783124 7 18 C6.30124775 20.77190974 6.3418303 23.22170845 7 26 C8.9004467 27.84315671 8.9004467 27.84315671 11 29 C11 29.99 11 30.98 11 32 C7.37 32 3.74 32 0 32 C0 21.44 0 10.88 0 0 Z " fill="#FE04FE" transform="translate(0,0)"/>
<path d="M0 0 C2.97 0 5.94 0 9 0 C9 10.56 9 21.12 9 32 C3.39 32 -2.22 32 -8 32 C-8 31.34 -8 30.68 -8 30 C-7.44570312 29.74605469 -6.89140625 29.49210937 -6.3203125 29.23046875 C-5.59585937 28.88628906 -4.87140625 28.54210937 -4.125 28.1875 C-3.04605469 27.68283203 -3.04605469 27.68283203 -1.9453125 27.16796875 C0.30542806 26.00532903 0.30542806 26.00532903 2 23 C2.58333333 19.5 2.58333333 19.5 2 16 C-0.3726974 13.99135641 -0.3726974 13.99135641 -3 13 C-2.67 11.02 -2.34 9.04 -2 7 C-1.34 7.33 -0.68 7.66 0 8 C0 8.66 0 9.32 0 10 C0.66 10 1.32 10 2 10 C1.34 6.7 0.68 3.4 0 0 Z " fill="#FE05FE" transform="translate(23,0)"/>
<path d="M0 0 C2.125 0.9375 2.125 0.9375 4 2 C3.39009109 5.55780196 2.4216319 8.6828589 1 12 C0.34 11.34 -0.32 10.68 -1 10 C-0.96712417 7.27130593 -0.43602229 4.7033382 0 2 C-0.66 1.67 -1.32 1.34 -2 1 C-1.34 0.67 -0.68 0.34 0 0 Z " fill="#FE1CFE" transform="translate(12,13)"/>
<path d="M0 0 C0.66 0.33 1.32 0.66 2 1 C2 2.65 2 4.3 2 6 C0.02 6.99 0.02 6.99 -2 8 C-1.125 2.25 -1.125 2.25 0 0 Z " fill="#FE21FE" transform="translate(18,17)"/>
</svg>
